<?xml version="1.0" encoding="UTF-8"?>
<!DOCTYPE svg PUBLIC "-//W3C//DTD SVG 1.1//EN" "http://www.w3.org/Graphics/SVG/1.1/DTD/svg11.dtd">
<svg version="1.1" xmlns="http://www.w3.org/2000/svg" xmlns:xlink="http://www.w3.org/1999/xlink" width="24" height="24" viewBox="0 0 24 24">
  <path fill="#000" d="M16.5 6v11.5c0 2.21-1.79 4-4 4s-4-1.79-4-4v-12.5c0-1.38 1.12-2.5 2.5-2.5s2.5 1.12 2.5 2.5v10.5c0 0.55-0.445 1-1 1s-1-0.45-1-1v-9.5h-1.5v9.5c0 1.38 1.12 2.5 2.5 2.5s2.5-1.12 2.5-2.5v-10.5c0-2.21-1.79-4-4-4s-4 1.79-4 4v12.5c0 3.040 2.465 5.5 5.5 5.5s5.5-2.46 5.5-5.5v-11.5h-1.5z"></path>
</svg>
