<svg width="24" height="24" viewBox="0 0 24 24" fill="none" xmlns="http://www.w3.org/2000/svg"><path fill-rule="evenodd" clip-rule="evenodd" d="M6.52173 19.2417C6.24559 19.2417 6.02173 19.0178 6.02173 18.7416V5.34985C6.02173 5.07371 6.24559 4.84985 6.52173 4.84985H12.3045C13.652 4.84985 14.7655 5.19538 15.5452 5.83216C16.3282 6.47167 16.7612 7.39442 16.7612 8.51548C16.7612 9.64484 16.1739 10.6436 15.2845 11.2252C15.1773 11.2953 15.1169 11.4185 15.1272 11.5462C15.1375 11.6739 15.2168 11.7859 15.3339 11.8379C16.5929 12.3976 17.435 13.5797 17.435 15.0584C17.435 16.3395 16.9517 17.3916 16.0721 18.1207C15.1958 18.8472 13.9403 19.2417 12.412 19.2417H6.52173ZM9.27095 7.34712V10.7092C9.92733 10.7092 10.5837 10.7092 11.2401 10.7092C12.007 10.7092 12.5881 10.5397 12.9739 10.2445C13.354 9.95366 13.5608 9.5287 13.5608 8.97446C13.5608 8.44518 13.3776 8.04668 13.0482 7.77706C12.7141 7.50367 12.2105 7.34712 11.5428 7.34712C10.7855 7.34712 10.0282 7.34712 9.27095 7.34712ZM9.27095 12.9526V16.7444C10.0673 16.7444 10.8637 16.7444 11.66 16.7444C12.4917 16.7444 13.1076 16.567 13.5128 16.2469C13.9119 15.9316 14.1272 15.4615 14.1272 14.8241C14.1272 14.2043 13.9068 13.7468 13.4963 13.4389C13.0785 13.1256 12.4442 12.9526 11.5917 12.9526C10.8181 12.9526 10.0445 12.9526 9.27095 12.9526Z" fill="black"/></svg>
