<?xml version="1.0" encoding="UTF-8"?>
<!DOCTYPE svg PUBLIC "-//W3C//DTD SVG 1.1//EN" "http://www.w3.org/Graphics/SVG/1.1/DTD/svg11.dtd">
<svg version="1.1" xmlns="http://www.w3.org/2000/svg" xmlns:xlink="http://www.w3.org/1999/xlink" width="24" height="24" viewBox="0 0 24 24">
  <path id="Shape" fill="#000" d="m15.6 11.79c0.965-0.675 1.65-1.765 1.65-2.79 0-2.255-1.745-4-4-4h-6.25v14h7.04c2.095 0 3.71-1.7 3.71-3.79 0-1.52-0.865-2.815-2.15-3.42zm-5.6-4.29h3c0.83 0 1.5 0.67 1.5 1.5s-0.67 1.5-1.5 1.5h-3v-3zm3.5 9h-3.5v-3h3.5c0.83 0 1.5 0.67 1.5 1.5s-0.67 1.5-1.5 1.5z"/>
</svg>
