<?xml version="1.0" encoding="UTF-8"?>
<!DOCTYPE svg PUBLIC "-//W3C//DTD SVG 1.1//EN" "http://www.w3.org/Graphics/SVG/1.1/DTD/svg11.dtd">
<svg version="1.1" xmlns="http://www.w3.org/2000/svg" xmlns:xlink="http://www.w3.org/1999/xlink" width="24" height="24" viewBox="0 0 24 24">
  <path id="Shape" fill="#000" d="m4 4c-1.1067 0-2 0.8933-2 2s0.8933 2 2 2 2-0.8933 2-2-0.8933-2-2-2zm0 6c-1.1067 0-2 0.893-2 2s0.8933 2 2 2 2-0.893 2-2-0.8933-2-2-2zm0 6c-1.1067 0-2 0.893-2 2s0.8933 2 2 2 2-0.893 2-2-0.8933-2-2-2zm4 3h14v-2h-14v2zm0-6h14v-2h-14v2zm0-8v2h14v-2h-14z"/>
</svg>
