<svg width="24" height="24" fill="none" xmlns="http://www.w3.org/2000/svg"><path fill-rule="evenodd" clip-rule="evenodd" d="M18.948 5.258a4.337 4.337 0 0 0-6.108 0L11.217 6.87a.993.993 0 0 0 0 1.41c.392.39 1.027.39 1.418 0l1.623-1.613a2.323 2.323 0 0 1 3.271 0 2.29 2.29 0 0 1 0 3.251l-2.393 2.38a3.021 3.021 0 0 1-4.255 0l-.05-.049a1.007 1.007 0 0 0-1.418 0 .993.993 0 0 0 0 1.41l.05.049a5.036 5.036 0 0 0 7.091 0l2.394-2.38a4.275 4.275 0 0 0 0-6.072ZM5.265 18.858a4.337 4.337 0 0 0 6.108 0l1.262-1.255a.993.993 0 0 0 0-1.41 1.007 1.007 0 0 0-1.418 0L9.954 17.45a2.323 2.323 0 0 1-3.27 0 2.29 2.29 0 0 1 0-3.251l2.344-2.331a2.579 2.579 0 0 1 3.631 0c.392.39 1.027.39 1.419 0a.993.993 0 0 0 0-1.41 4.593 4.593 0 0 0-6.468 0l-2.345 2.33a4.275 4.275 0 0 0 0 6.072Z" fill="#000"/></svg>
