<svg width="24" height="24" viewBox="0 0 24 24" xmlns="http://www.w3.org/2000/svg"><path d="M9.88 13.7c-1.67-1.68-1.67-4.4 0-6.07l3.37-3.37c.8-.8 1.9-1.26 3.04-1.26 1.13 0 2.2.45 3.02 1.26 1.67 1.67 1.67 4.4 0 6.06l-1.96 1.72c-.36.35-.94.35-1.3 0-.35-.36-.35-.94 0-1.3l1.97-1.7c.96-.97.96-2.53 0-3.5-.47-.46-1.1-.7-1.74-.7-.67 0-1.3.24-1.75.7l-3.38 3.38c-.96.96-.96 2.52 0 3.48.36.36.36.94 0 1.3-.18.17-.4.26-.64.26s-.47-.1-.65-.26z"/><path d="M4.25 19.46c-1.67-1.67-1.67-4.4 0-6.07l1.93-1.9c.36-.37.93-.37 1.3 0 .35.35.35.93 0 1.28l-1.93 1.9c-.96.97-.96 2.53 0 3.5.46.45 1.08.7 1.74.7.64 0 1.26-.25 1.73-.7l3.37-3.4c.96-.95.96-2.5 0-3.47-.35-.35-.35-.92 0-1.28.36-.36.94-.36 1.3 0 1.67 1.67 1.67 4.4 0 6.06l-3.38 3.38c-.8.8-1.9 1.25-3.03 1.25-1.16 0-2.24-.43-3.05-1.24z"/></svg>