<svg width="24" height="24" viewBox="0 0 24 24" fill="none" xmlns="http://www.w3.org/2000/svg"><path fill-rule="evenodd" clip-rule="evenodd" d="M5 6C5 5.44772 5.44772 5 6 5H18C18.5523 5 19 5.44771 19 6C19 6.55228 18.5523 7 18 7L6 7C5.44772 7 5 6.55228 5 6ZM9 11C8.44772 11 8 11.4477 8 12C8 12.5523 8.44772 13 9 13L18 13C18.5523 13 19 12.5523 19 12C19 11.4477 18.5523 11 18 11L9 11ZM6 17C5.44772 17 5 17.4477 5 18C5 18.5523 5.44772 19 6 19L18 19C18.5523 19 19 18.5523 19 18C19 17.4477 18.5523 17 18 17L6 17ZM2.29289 11.2929C1.90237 11.6834 1.90237 12.3166 2.29289 12.7071L4.29283 14.707C4.68336 15.0976 5.31652 15.0976 5.70705 14.707C6.09757 14.3165 6.09757 13.6834 5.70705 13.2928L4.41421 12L5.70711 10.7071C6.09763 10.3166 6.09763 9.68342 5.70711 9.29289C5.31658 8.90237 4.68342 8.90237 4.29289 9.29289L2.29289 11.2929Z" fill="black"/></svg>
