<svg width="24" height="24" viewBox="0 0 24 24" fill="none" xmlns="http://www.w3.org/2000/svg"><path fill-rule="evenodd" clip-rule="evenodd" d="M5 6C5 5.44772 5.44772 5 6 5H18C18.5523 5 19 5.44771 19 6C19 6.55228 18.5523 7 18 7L6 7C5.44772 7 5 6.55228 5 6ZM9 11C8.44772 11 8 11.4477 8 12C8 12.5523 8.44772 13 9 13L18 13C18.5523 13 19 12.5523 19 12C19 11.4477 18.5523 11 18 11L9 11ZM6 17C5.44772 17 5 17.4477 5 18C5 18.5523 5.44772 19 6 19L18 19C18.5523 19 19 18.5523 19 18C19 17.4477 18.5523 17 18 17L6 17ZM3.70711 14.7071L5.70711 12.7071C6.09763 12.3166 6.09763 11.6834 5.70711 11.2929L3.70717 9.29296C3.31664 8.90243 2.68348 8.90243 2.29295 9.29296C1.90243 9.68348 1.90243 10.3166 2.29295 10.7072L3.58579 12L2.29289 13.2929C1.90237 13.6834 1.90237 14.3166 2.29289 14.7071C2.68342 15.0976 3.31658 15.0976 3.70711 14.7071Z" fill="black"/></svg>
