<svg width="24" height="24" viewBox="0 0 24 24" fill="none" xmlns="http://www.w3.org/2000/svg"><path d="M4.5814 8.47112C5.02059 7.97128 5.63673 7.63709 6.33938 7.47642C8.07385 7.17011 9.20107 7.82157 9.99998 8.75226C11.3544 10.3301 11.33 12.3067 10.3939 14.0291C9.45301 15.7604 7.60556 17.1916 5.406 17.5891C5.13432 17.6381 4.87854 17.4977 4.75347 17.2719C4.64019 17.0674 4.63159 16.7829 4.91338 16.5081C5.20727 16.2216 5.48027 15.9415 5.70435 15.6729C5.92587 15.4074 6.11653 15.1334 6.22775 14.858C6.34108 14.5773 6.38449 14.261 6.25382 13.9505C6.12613 13.6472 5.86395 13.4261 5.53312 13.2607C4.6471 12.8177 3.86133 11.851 3.86133 10.559C3.86133 9.65399 4.14412 8.9688 4.5814 8.47112Z" fill="black"/><path d="M14 8.47112C14.4392 7.97128 15.0553 7.63709 15.758 7.47642C17.4924 7.17011 18.6197 7.82157 19.4186 8.75226C20.773 10.3301 20.7486 12.3067 19.8125 14.0291C18.8716 15.7604 17.0242 17.1916 14.8246 17.5891C14.5529 17.6381 14.2971 17.4977 14.1721 17.2719C14.0588 17.0674 14.0502 16.7829 14.332 16.5081C14.6259 16.2216 14.8989 15.9415 15.123 15.6729C15.3445 15.4074 15.5351 15.1334 15.6463 14.858C15.7597 14.5773 15.8031 14.261 15.6724 13.9505C15.5447 13.6472 15.2826 13.4261 14.9517 13.2607C14.0657 12.8177 13.2799 11.851 13.2799 10.559C13.2799 9.65399 13.5627 8.9688 14 8.47112Z" fill="black"/></svg>
