<svg width="24" height="24" fill="none" xmlns="http://www.w3.org/2000/svg"><path fill-rule="evenodd" clip-rule="evenodd" d="M6 14.986c.088 2.647 2.246 4.258 5.635 4.258 3.496 0 5.713-1.728 5.713-4.463 0-.275-.02-.536-.062-.781h-3.461c.398.293.573.654.573 1.123 0 1.035-1.074 1.787-2.646 1.787-1.563 0-2.773-.762-2.91-1.924H6ZM6.432 10h3.763c-.632-.314-.914-.715-.914-1.273 0-1.045.977-1.739 2.432-1.739 1.475 0 2.52.723 2.617 1.914h2.764c-.05-2.548-2.11-4.238-5.39-4.238-3.145 0-5.392 1.719-5.392 4.316 0 .363.04.703.12 1.02ZM4 11a1 1 0 1 0 0 2h15a1 1 0 1 0 0-2H4Z" fill="#000"/></svg>
