<svg xmlns="http://www.w3.org/2000/svg" height="24" width="24" viewBox="0 0 24 24"><path d="M12.73 14l.28.14c.27.15.46.3.58.44.12.14.18.3.18.5 0 .3-.15.56-.44.75-.3.2-.76.3-1.4.3-.72 0-1.52-.1-2.4-.32-.87-.2-1.7-.48-2.52-.85v3.37c.77.32 1.5.55 2.2.68s1.6.2 2.65.2c1.25 0 2.34-.2 3.27-.56.93-.37 1.64-.9 2.14-1.57s.74-1.45.74-2.32c0-.26-.02-.5-.06-.75h-5.2zm-5.5-4c-.08-.34-.12-.7-.12-1.1 0-1.3.53-2.3 1.6-3.02 1.04-.72 2.5-1.08 4.33-1.08 1.62 0 3.28.34 4.97 1l-1.3 2.93c-1.47-.6-2.73-.9-3.8-.9-.55 0-.96.08-1.2.26-.26.16-.38.37-.38.63 0 .27.16.52.48.74.17.12.53.3 1.05.53H7.23zM3 13h18v-2H3v2z"/></svg>