<?xml version="1.0" encoding="UTF-8"?>
<!DOCTYPE svg PUBLIC "-//W3C//DTD SVG 1.1//EN" "http://www.w3.org/Graphics/SVG/1.1/DTD/svg11.dtd">
<svg version="1.1" xmlns="http://www.w3.org/2000/svg" xmlns:xlink="http://www.w3.org/1999/xlink" width="24" height="24" viewBox="0 0 24 24">
  <path id="S" fill="#000" d="m12.728 14c0.122 0.057 0.216 0.104 0.282 0.141 0.262 0.147 0.451 0.293 0.57 0.436 0.118 0.144 0.177 0.312 0.177 0.503 0 0.307-0.147 0.558-0.441 0.752-0.293 0.195-0.755 0.293-1.385 0.293-0.731 0-1.533-0.104-2.4066-0.312-0.8737-0.207-1.7152-0.496-2.5244-0.867v3.373c0.7663 0.325 1.5039 0.554 2.2129 0.685s1.5861 0.196 2.6321 0.196c1.253 0 2.345-0.187 3.276-0.56 0.931-0.374 1.644-0.898 2.138-1.572s0.741-1.445 0.741-2.314c0-0.264-0.021-0.515-0.062-0.754h-5.21zm-5.4977-4c-0.0819-0.3358-0.1229-0.7022-0.1229-1.0994 0-1.2902 0.5264-2.2962 1.5791-3.018 1.0528-0.7217 2.4995-1.0826 4.3395-1.0826 1.626 0 3.284 0.3353 4.974 1.006l-1.3 2.9221c-1.468-0.6004-2.735-0.9006-3.803-0.9006-0.551 0-0.952 0.0863-1.203 0.2587-0.25 0.1725-0.376 0.3865-0.376 0.6419 0 0.2747 0.16 0.5206 0.478 0.7378 0.179 0.1218 0.53 0.2998 1.052 0.5341h-5.6177z"/>
  <path id="Path-2" fill="#000" d="m3 13h18v-2h-18v2z"/>
</svg>
