<?xml version="1.0" encoding="UTF-8"?>
<svg xmlns="http://www.w3.org/2000/svg" height="24px" width="24px" version="1.1" xmlns:xlink="http://www.w3.org/1999/xlink" viewBox="-5 -5 24 24">
 <path id="U" fill="#000" d="M5.03849519,0.98261403 L5.03849519,6.06970867 C5.03849519,6.9355711 5.22805293,7.56864188 5.6071741,7.96894011 C6.17293955,8.54763203 6.96908207,8.8369737 7.99562555,8.8369737 C9.02800165,8.8369737 9.82706049,8.54763203 10.3928259,7.96894011 C10.7719471,7.5816951 10.9615048,6.94862425 10.9615048,6.06970867 L10.9615048,0 L13,0.98261403 L13,6.48740905 C13,7.54906952 12.5567265,8.42362092 11.6701662,9.11108955 C10.6727859,9.87687741 9.44795123,10.2597656 7.99562555,10.2597656 C6.54329983,10.2597656 5.32138145,9.87687741 4.32983377,9.11108955 C3.4432735,8.42362092 3,7.54906952 3,6.48740905 L3,0 L5.03849519,0.98261403 L5.03849519,0.98261403 Z"></path>
 <path id="Path-2" fill="#000" d="M0,14 L16,14 L16,12 L0,12 L0,14 L0,14 L0,14 Z"></path>
</svg>
